<svg width="354" height="343" viewBox="0 0 354 343" fill="none" xmlns="http://www.w3.org/2000/svg">
<path fill-rule="evenodd" clip-rule="evenodd" d="M178.18 281.153H53.6406C50.415 281.153 47.3535 282.348 45.112 284.485L3.56254 323.579C-4.03665 330.744 1.32103 343 12.0911 343H107.546C110.771 343 113.833 341.806 116.074 339.669L178.235 281.153H178.18Z" fill="#5D76FF"/>
<path fill-rule="evenodd" clip-rule="evenodd" d="M174.9 280.839L236.896 339.229C239.247 341.429 242.418 342.686 245.753 342.686H339.95C351.103 342.686 356.679 329.99 348.807 322.573L239.684 219.873L174.9 158.906V280.902V280.839Z" fill="#5D76FF"/>
<path fill-rule="evenodd" clip-rule="evenodd" d="M341.481 2.09008L174.9 158.843L239.684 219.81L351.868 114.281C353.235 112.961 354 111.201 354 109.379V6.92967C354 0.770167 346.073 -2.30958 341.481 2.02722V2.09008Z" fill="#495ABA"/>
</svg>
