<svg width="998" height="466" viewBox="0 0 998 466" fill="none" xmlns="http://www.w3.org/2000/svg">
<g clip-path="url(#clip0_90_56)">
<path d="M908.534 464.563H506.935C496.011 464.563 487.124 454.732 487.124 442.647V143.997C487.078 141.719 487.665 139.473 488.82 137.508C489.975 135.544 491.653 133.94 493.667 132.873L645.426 41.0025C653.744 36.8734 662.904 34.7204 672.191 34.711C681.478 34.7016 690.642 36.8361 698.969 40.9483L921.762 132.864C923.786 133.926 925.474 135.532 926.636 137.5C927.799 139.468 928.391 141.721 928.345 144.006V442.647C928.345 454.732 919.458 464.563 908.534 464.563Z" fill="#F2F2F2"/>
<path d="M849.234 464.24H504.371C494.951 464.24 487.288 457.3 487.288 448.77V240.011C487.332 238.271 487.899 236.585 488.914 235.172C489.929 233.758 491.346 232.682 492.98 232.084L653.556 167.852C668.311 162.014 684.734 162.006 699.494 167.829L860.615 232.087C862.251 232.684 863.671 233.759 864.688 235.174C865.705 236.588 866.272 238.276 866.317 240.018V448.77C866.317 457.3 858.653 464.24 849.234 464.24Z" fill="#5D76FF"/>
<path d="M298.685 245.012C326.593 245.012 349.217 222.388 349.217 194.48C349.217 166.572 326.593 143.948 298.685 143.948C270.777 143.948 248.153 166.572 248.153 194.48C248.153 222.388 270.777 245.012 298.685 245.012Z" fill="#FF6584"/>
<path d="M319.81 378.456C355.157 378.456 383.811 342.59 383.811 298.347C383.811 254.103 355.157 218.237 319.81 218.237C284.464 218.237 255.81 254.103 255.81 298.347C255.81 342.59 284.464 378.456 319.81 378.456Z" fill="#F2F2F2"/>
<path d="M319.986 282.238H320.162L323.327 463.69H316.646L319.986 282.238Z" fill="#CCCCCC"/>
<path d="M330.903 402.365C331.098 402.736 331.138 403.17 331.014 403.571C330.889 403.972 330.611 404.307 330.24 404.502L321.06 409.335L319.586 406.534L328.765 401.702C329.137 401.506 329.57 401.466 329.971 401.591C330.372 401.715 330.707 401.993 330.903 402.365Z" fill="#CCCCCC"/>
<path d="M135.81 378.456C171.157 378.456 199.811 342.59 199.811 298.347C199.811 254.103 171.157 218.237 135.81 218.237C100.464 218.237 71.8096 254.103 71.8096 298.347C71.8096 342.59 100.464 378.456 135.81 378.456Z" fill="#F2F2F2"/>
<path d="M146.902 405.365C146.707 404.993 146.372 404.715 145.971 404.591C145.57 404.466 145.136 404.506 144.765 404.702L138.356 408.076L136.162 282.238H135.986L132.646 463.69H139.327L138.418 411.62L146.239 407.502C146.611 407.307 146.889 406.972 147.013 406.571C147.138 406.17 147.098 405.736 146.902 405.365Z" fill="#CCCCCC"/>
<path d="M227.588 113.73C272.376 113.73 308.779 198.121 308.779 254.182C308.779 310.243 272.472 355.69 227.684 355.69C182.896 355.69 146.588 310.243 146.588 254.182C146.588 198.121 182.8 113.73 227.588 113.73Z" fill="#5D76FF"/>
<path d="M241.738 389.786C241.616 389.553 241.448 389.346 241.246 389.178C241.043 389.009 240.81 388.883 240.558 388.805C240.307 388.727 240.042 388.699 239.78 388.723C239.518 388.747 239.263 388.823 239.03 388.945L230.91 393.22L228.129 233.77H227.907L223.674 463.69H232.14L230.989 397.711L240.898 392.494C241.131 392.371 241.338 392.204 241.506 392.001C241.675 391.799 241.801 391.565 241.879 391.314C241.957 391.062 241.985 390.798 241.961 390.536C241.937 390.273 241.861 390.019 241.738 389.786Z" fill="#3F3D56"/>
<path d="M596.28 320.778V299.187C596.28 296.371 595.162 293.671 593.171 291.679C591.179 289.688 588.479 288.57 585.663 288.57H531.179C528.363 288.57 525.663 289.688 523.671 291.679C521.68 293.671 520.562 296.371 520.562 299.187V320.778H596.28Z" fill="white"/>
<path d="M520.562 324.169V357.626C520.562 360.442 521.68 363.143 523.671 365.134C525.663 367.125 528.363 368.244 531.179 368.244H585.663C588.479 368.244 591.179 367.125 593.171 365.134C595.162 363.143 596.28 360.442 596.28 357.626V324.169H520.562Z" fill="white"/>
<path d="M853.201 261.515L689.625 201.552C679.683 197.907 668.771 197.907 658.829 201.552L495.253 261.515C491.805 262.779 488.104 263.192 484.462 262.719C480.821 262.246 477.348 260.901 474.338 258.798C471.327 256.695 468.869 253.897 467.172 250.641C465.474 247.385 464.588 243.767 464.588 240.096C464.588 235.423 466.023 230.863 468.699 227.032C471.374 223.201 475.162 220.284 479.549 218.676L658.829 152.956C668.771 149.312 679.683 149.312 689.625 152.956L868.905 218.676C873.292 220.284 877.08 223.201 879.756 227.032C882.431 230.863 883.866 235.423 883.866 240.096C883.866 243.767 882.98 247.385 881.283 250.641C879.585 253.897 877.127 256.695 874.117 258.798C871.106 260.901 867.633 262.246 863.992 262.719C860.35 263.192 856.649 262.779 853.201 261.515Z" fill="#3F3D56"/>
<path d="M700.64 465.24H656.921C652.281 465.234 647.833 463.389 644.552 460.108C641.272 456.827 639.426 452.379 639.421 447.74V341.864C639.426 337.224 641.272 332.776 644.552 329.495C647.833 326.214 652.281 324.369 656.921 324.364H700.64C705.279 324.369 709.727 326.214 713.008 329.495C716.289 332.776 718.134 337.224 718.14 341.864V447.74C718.134 452.379 716.289 456.827 713.008 460.108C709.727 463.389 705.279 465.234 700.64 465.24ZM656.921 327.364C653.077 327.368 649.391 328.897 646.673 331.615C643.954 334.334 642.425 338.019 642.421 341.864V447.74C642.425 451.584 643.954 455.269 646.673 457.988C649.391 460.706 653.077 462.235 656.921 462.24H700.64C704.484 462.235 708.169 460.706 710.888 457.988C713.606 455.269 715.135 451.584 715.14 447.74V341.864C715.135 338.019 713.606 334.334 710.888 331.615C708.169 328.897 704.484 327.368 700.64 327.364H656.921Z" fill="#3F3D56"/>
<path d="M704.88 99.1816C704.176 91.3103 700.551 83.9875 694.719 78.6542C688.888 73.3209 681.271 70.3633 673.368 70.3633C665.466 70.3633 657.849 73.3209 652.017 78.6542C646.186 83.9875 642.561 91.3103 641.857 99.1816H704.88Z" fill="white"/>
<path d="M641.739 102.572C641.885 110.864 645.281 118.768 651.197 124.581C657.113 130.393 665.075 133.65 673.369 133.65C681.662 133.65 689.624 130.393 695.54 124.581C701.456 118.768 704.852 110.864 704.998 102.572H641.739Z" fill="white"/>
<path d="M699.927 137.541H646.811C644.28 137.541 641.853 136.536 640.064 134.746C638.275 132.957 637.27 130.53 637.27 128C637.27 125.47 638.275 123.043 640.064 121.253C641.853 119.464 644.28 118.459 646.811 118.459H699.927C702.457 118.459 704.884 119.464 706.673 121.253C708.463 123.043 709.468 125.47 709.468 128C709.468 130.53 708.463 132.957 706.673 134.746C704.884 136.536 702.457 137.541 699.927 137.541Z" fill="#CCCCCC"/>
<path d="M521.127 357.442C518.862 357.442 516.689 358.342 515.088 359.944C513.486 361.546 512.586 363.718 512.586 365.983C512.586 368.249 513.486 370.421 515.088 372.023C516.689 373.625 518.862 374.524 521.127 374.524H595.716C597.981 374.524 600.153 373.625 601.755 372.023C603.357 370.421 604.257 368.249 604.257 365.983C604.257 363.718 603.357 361.546 601.755 359.944C600.153 358.342 597.981 357.442 595.716 357.442H521.127Z" fill="#CCCCCC"/>
<path d="M752.803 324.169V357.626C752.803 360.442 753.921 363.143 755.913 365.134C757.904 367.125 760.604 368.244 763.42 368.244H817.904C820.72 368.244 823.421 367.125 825.412 365.134C827.403 363.143 828.522 360.442 828.522 357.626V324.169H752.803Z" fill="white"/>
<path d="M828.522 320.778V299.187C828.522 296.371 827.403 293.671 825.412 291.679C823.421 289.688 820.72 288.57 817.904 288.57H763.42C760.604 288.57 757.904 289.688 755.913 291.679C753.921 293.671 752.803 296.371 752.803 299.187V320.778H828.522Z" fill="white"/>
<path d="M704.773 398.192C708.206 398.192 710.989 395.409 710.989 391.977C710.989 388.544 708.206 385.761 704.773 385.761C701.34 385.761 698.557 388.544 698.557 391.977C698.557 395.409 701.34 398.192 704.773 398.192Z" fill="#3F3D56"/>
<path d="M495.986 395.977L471.503 357.893L472.636 357.164L495.868 393.303L514.799 357.216L515.991 357.841L495.986 395.977Z" fill="#3F3D56"/>
<path d="M515.923 345.409H457.681V344.399C457.681 342.763 457.358 341.143 456.732 339.632C456.106 338.12 455.189 336.747 454.032 335.591C452.875 334.434 451.502 333.516 449.991 332.89C448.48 332.264 446.86 331.942 445.224 331.942C443.588 331.942 441.968 332.264 440.457 332.89C438.946 333.516 437.573 334.434 436.416 335.591C435.259 336.747 434.342 338.12 433.716 339.632C433.09 341.143 432.768 342.763 432.768 344.399V345.409H427.044C423.741 345.409 420.572 346.721 418.236 349.057C415.9 351.393 414.588 354.561 414.588 357.865C414.588 361.169 415.9 364.337 418.236 366.673C420.572 369.009 423.741 370.322 427.044 370.322H432.768V464.457C457.588 463.959 432.588 464.959 457.681 464.457V370.322H515.923C519.227 370.322 522.395 369.009 524.731 366.673C527.067 364.337 528.379 361.169 528.379 357.865C528.379 354.561 527.067 351.393 524.731 349.057C522.395 346.721 519.227 345.409 515.923 345.409Z" fill="#3F3D56"/>
<path d="M444.887 362.242C447.49 362.242 449.6 360.132 449.6 357.528C449.6 354.925 447.49 352.815 444.887 352.815C442.284 352.815 440.174 354.925 440.174 357.528C440.174 360.132 442.284 362.242 444.887 362.242Z" fill="white"/>
<path d="M523.324 419.974H469.468C466.924 419.971 464.486 418.959 462.687 417.161C460.888 415.362 459.876 412.923 459.874 410.379V392.882C459.876 390.339 460.888 387.9 462.687 386.101C464.486 384.303 466.924 383.291 469.468 383.288H523.324C525.868 383.291 528.307 384.303 530.106 386.101C531.904 387.9 532.916 390.339 532.919 392.882V410.379C532.916 412.923 531.904 415.362 530.106 417.161C528.307 418.959 525.868 419.971 523.324 419.974Z" fill="#CCCCCC"/>
<path d="M513.229 397.254H478.89C476.845 397.254 475.187 398.912 475.187 400.958C475.187 403.003 476.845 404.661 478.89 404.661H513.229C515.275 404.661 516.932 403.003 516.932 400.958C516.932 398.912 515.275 397.254 513.229 397.254Z" fill="#6C63FF"/>
<path d="M996.402 465.459H0.773056C0.568028 465.459 0.371402 465.378 0.226425 465.233C0.0814483 465.088 0 464.891 0 464.686C0 464.481 0.0814483 464.285 0.226425 464.14C0.371402 463.995 0.568028 463.913 0.773056 463.913H996.402C996.607 463.913 996.804 463.995 996.949 464.14C997.094 464.285 997.175 464.481 997.175 464.686C997.175 464.891 997.094 465.088 996.949 465.233C996.804 465.378 996.607 465.459 996.402 465.459Z" fill="#CCCCCC"/>
<path d="M827.391 375.524H752.803C750.272 375.524 747.845 374.519 746.056 372.73C744.267 370.941 743.262 368.514 743.262 365.983C743.262 363.453 744.267 361.026 746.056 359.237C747.845 357.448 750.272 356.442 752.803 356.442H827.391C829.922 356.442 832.349 357.448 834.138 359.237C835.927 361.026 836.932 363.453 836.932 365.983C836.932 368.514 835.927 370.941 834.138 372.73C832.349 374.519 829.922 375.524 827.391 375.524Z" fill="#CCCCCC"/>
<path d="M927.588 153.959C927.588 153.959 909.5 152.676 872.588 150.959C828.588 73.9595 685.584 55.3994 685.584 0.000137329L861.35 0C878.936 0 895.802 6.98596 908.237 19.4211C920.672 31.8561 927.658 48.7217 927.658 66.3076L927.588 153.959Z" fill="#CCCCCC"/>
<path d="M775.143 20.2437C774.745 20.2441 774.364 20.4023 774.082 20.6835C773.801 20.9647 773.643 21.346 773.643 21.7437V71.8237C773.643 72.2214 773.801 72.6027 774.082 72.8839C774.364 73.1651 774.745 73.3233 775.143 73.3237H806.338C806.735 73.3233 807.117 73.1651 807.398 72.8839C807.679 72.6027 807.837 72.2214 807.838 71.8237V21.7437C807.837 21.346 807.679 20.9647 807.398 20.6835C807.117 20.4023 806.735 20.2441 806.338 20.2437H775.143Z" fill="#F2F2F2"/>
<path d="M861.785 149.921L698.209 51.329C688.267 47.6845 677.355 47.6845 667.413 51.329L503.837 149.921C500.389 151.185 496.688 151.598 493.046 151.125C489.405 150.652 485.932 149.307 482.922 147.204C479.911 145.101 477.453 142.303 475.756 139.047C474.058 135.791 473.172 132.173 473.172 128.501C473.172 123.829 474.607 119.269 477.283 115.438C479.958 111.607 483.746 108.69 488.133 107.082L667.413 2.73338C677.355 -0.911128 688.267 -0.911128 698.209 2.73338L877.489 107.082C881.876 108.69 885.664 111.607 888.34 115.438C891.015 119.268 892.45 123.829 892.45 128.501C892.45 132.173 891.564 135.791 889.867 139.047C888.169 142.303 885.711 145.101 882.701 147.204C879.69 149.307 876.217 150.652 872.576 151.125C868.934 151.598 865.233 151.185 861.785 149.921Z" fill="#CCCCCC"/>
</g>
<defs>
<clipPath id="clip0_90_56">
<rect width="997.175" height="465.46" fill="white"/>
</clipPath>
</defs>
</svg>
